name C:\Users\u0088756\Documents\FWO\Software\ExoSim\SimExo_3D\3dpredictsim\Results\BatchSim_2020_03_17_UpdIG\Passive.mot
datacolumns 126
datarows 4
range 1.70198307 1.73602274
endheader
time	pelvis_tilt	pelvis_list	pelvis_rotation	pelvis_tx	pelvis_ty	pelvis_tz	hip_flexion_l	hip_adduction_l	hip_rotation_l	hip_flexion_r	hip_adduction_r	hip_rotation_r	knee_angle_l	knee_angle_r	ankle_angle_l	ankle_angle_r	subtalar_angle_l	subtalar_angle_r	mtp_angle_l	mtp_angle_r	lumbar_extension	lumbar_bending	lumbar_rotation	arm_flex_l	arm_add_l	arm_rot_l	arm_flex_r	arm_add_r	arm_rot_r	elbow_flex_l	elbow_flex_r	pro_sup_l	pro_sup_r	glut_med1_l/activation	glut_med2_l/activation	glut_med3_l/activation	glut_min1_l/activation	glut_min2_l/activation	glut_min3_l/activation	semimem_l/activation	semiten_l/activation	bifemlh_l/activation	bifemsh_l/activation	sar_l/activation	add_long_l/activation	add_brev_l/activation	add_mag1_l/activation	add_mag2_l/activation	add_mag3_l/activation	tfl_l/activation	pect_l/activation	grac_l/activation	glut_max1_l/activation	glut_max2_l/activation	glut_max3_l/activation	iliacus_l/activation	psoas_l/activation	quad_fem_l/activation	gem_l/activation	peri_l/activation	rect_fem_l/activation	vas_med_l/activation	vas_int_l/activation	vas_lat_l/activation	med_gas_l/activation	lat_gas_l/activation	soleus_l/activation	tib_post_l/activation	flex_dig_l/activation	flex_hal_l/activation	tib_ant_l/activation	per_brev_l/activation	per_long_l/activation	per_tert_l/activation	ext_dig_l/activation	ext_hal_l/activation	ercspn_l/activation	intobl_l/activation	extobl_l/activation	glut_med1_r/activation	glut_med2_r/activation	glut_med3_r/activation	glut_min1_r/activation	glut_min2_r/activation	glut_min3_r/activation	semimem_r/activation	semiten_r/activation	bifemlh_r/activation	bifemsh_r/activation	sar_r/activation	add_long_r/activation	add_brev_r/activation	add_mag1_r/activation	add_mag2_r/activation	add_mag3_r/activation	tfl_r/activation	pect_r/activation	grac_r/activation	glut_max1_r/activation	glut_max2_r/activation	glut_max3_r/activation	iliacus_r/activation	psoas_r/activation	quad_fem_r/activation	gem_r/activation	peri_r/activation	rect_fem_r/activation	vas_med_r/activation	vas_int_r/activation	vas_lat_r/activation	med_gas_r/activation	lat_gas_r/activation	soleus_r/activation	tib_post_r/activation	flex_dig_r/activation	flex_hal_r/activation	tib_ant_r/activation	per_brev_r/activation	per_long_r/activation	per_tert_r/activation	ext_dig_r/activation	ext_hal_r/activation	ercspn_r/activation	intobl_r/activation	extobl_r/activation	
          1.70198307	         -2.92818988	          2.88797389	         -6.86415494	          2.12747884	          0.85480756	          0.00348930	         31.57253902	          3.50203505	         -2.21102150	        -16.89940832	         -2.81876177	          8.00085315	        -12.99800473	        -10.91839095	          5.68317359	          1.41690771	         -3.33543723	         15.03769605	         -0.10442974	         22.94663071	         -1.93511363	         -1.24719325	          2.21963844	        -12.75803382	        -13.66754169	          5.27787010	          8.24205965	        -13.46357526	         16.98755127	         15.24253481	         45.25865726	         86.51662706	         86.51662706	          0.05000093	          0.05000039	          0.05000097	          0.05000045	          0.05000050	          0.05000134	          0.05945599	          0.05945606	          0.28272402	          0.05000082	          0.05000144	          0.10268339	          0.16292663	          0.22764519	          0.18486216	          0.12366102	          0.05945244	          0.05942956	          0.05948351	          0.05000243	          0.07065366	          0.10659349	          0.05000252	          0.05001187	          0.19301420	          0.05000380	          0.05000594	          0.05000225	          0.14101418	          0.14549409	          0.12064495	          0.05461234	          0.05000124	          0.05881417	          0.05000006	          0.05000093	          0.05000218	          0.49740117	          0.34454485	          0.22356843	          0.24210161	          0.55747970	          0.27473527	          0.05909007	          0.09745421	          0.10446213	          0.24203542	          0.09996836	          0.05989345	          0.29836262	          0.19686504	          0.10276139	          0.05000391	          0.05000058	          0.05000044	          0.06543398	          0.09999633	          0.07695004	          0.05000133	          0.05000120	          0.05000280	          0.05000243	          0.31815980	          0.05000729	          0.05000133	          0.05000880	          0.05000652	          0.05000353	          0.38326540	          0.59756964	          0.05000059	          0.05000157	          0.05000037	          0.27516816	          0.11438503	          0.05004111	          0.07565593	          0.34335246	          0.43563240	          0.28679259	          0.29372129	          0.35889094	          0.40895920	          0.05000003	          0.10935321	          0.26323182	          0.05000021	          0.05000006	          0.05000018	          0.05000002	          0.05000012	          0.05000009	
          1.71332963	         -2.92089240	          2.97621355	         -7.10468883	          2.14516212	          0.85380622	          0.00325120	         30.82030378	          3.93227698	         -2.04541010	        -16.76108255	         -3.11308242	          7.85310622	        -12.75476948	        -12.89424964	          5.02487123	         -0.14734005	         -3.79469756	         15.78509199	         -0.09953031	         24.17182063	         -1.69187455	         -1.47373633	          2.31720958	        -13.98117806	        -13.64211444	          5.20115592	          7.94555419	        -13.48638787	         17.19479836	         15.19727839	         46.47596346	         86.51662706	         86.51662706	          0.05626993	          0.05791601	          0.06160280	          0.05000715	          0.05000733	          0.05000236	          0.05000056	          0.05000076	          0.24612973	          0.05000027	          0.05000167	          0.08635346	          0.13701591	          0.29664521	          0.19693215	          0.11986858	          0.05000039	          0.05000271	          0.05002392	          0.05945584	          0.05945986	          0.13198498	          0.05000017	          0.05000026	          0.54055423	          0.13265380	          0.13184429	          0.07069898	          0.24028588	          0.24495981	          0.20632270	          0.05000002	          0.05000005	          0.05000000	          0.05068424	          0.06165074	          0.05676240	          0.59714908	          0.28975051	          0.22912825	          0.52748772	          0.60818029	          0.27051067	          0.05000002	          0.08195566	          0.08784908	          0.20354366	          0.08407003	          0.05477000	          0.25091311	          0.16555690	          0.08641894	          0.05000630	          0.05000073	          0.05000091	          0.05502791	          0.08409431	          0.14299807	          0.11991675	          0.06211625	          0.05001020	          0.05000356	          0.26756190	          0.10057397	          0.05889664	          0.05000350	          0.05000220	          0.05000176	          0.32231318	          0.54636267	          0.05000395	          0.07055061	          0.05945638	          0.23140702	          0.09619568	          0.16006649	          0.14135203	          0.28874764	          0.36635196	          0.24118272	          0.24700966	          0.30181529	          0.34392091	          0.05000003	          0.09196242	          0.22136914	          0.05000014	          0.05000003	          0.05000017	          0.05148552	          0.07069905	          0.05185191	
          1.72467618	         -2.90931762	          3.06418793	         -7.31150898	          2.16312340	          0.85276695	          0.00302984	         29.93821570	          4.28909278	         -1.80871004	        -16.54359567	         -3.39216093	          7.69250535	        -13.04536202	        -14.98590709	          4.32171818	         -1.92977130	         -4.28811964	         16.47696778	         -0.15801620	         25.22623442	         -1.43020501	         -1.70607724	          2.40137781	        -15.18200226	        -13.62133734	          5.19135939	          7.55650098	        -13.50955467	         17.32672646	         15.14092883	         47.64145569	         86.51662706	         86.51662706	          0.29273920	          0.25092770	          0.36509302	          0.05000043	          0.05000035	          0.31171681	          0.08600040	          0.05000077	          0.21164096	          0.05000034	          0.05000169	          0.08406817	          0.23348520	          0.24947340	          0.22337164	          0.16150289	          0.05000066	          0.07000765	          0.14781599	          0.05000052	          0.05000380	          0.11099628	          0.05940502	          0.05000180	          0.45458763	          0.11155755	          0.23905617	          0.05945545	          0.20207249	          0.20600339	          0.17351057	          0.05945541	          0.05945536	          0.05945545	          0.05945539	          0.05184637	          0.05945297	          0.50218189	          0.40813936	          0.19269192	          0.44360055	          0.59339574	          0.22749027	          0.05318212	          0.08406845	          0.07387807	          0.30312723	          0.07070006	          0.05013443	          0.21101016	          0.13922783	          0.07267546	          0.05000407	          0.05000072	          0.05000076	          0.05000031	          0.07072098	          0.14012069	          0.15851417	          0.05943399	          0.05003040	          0.05000294	          0.22501095	          0.08458419	          0.05675331	          0.05016422	          0.05012716	          0.05010415	          0.27105445	          0.50732841	          0.05945530	          0.05933224	          0.05000088	          0.19460538	          0.08090079	          0.13461076	          0.11887251	          0.24282685	          0.30808946	          0.20282638	          0.20772669	          0.25381646	          0.28922582	          0.05000035	          0.13229244	          0.24347687	          0.05000026	          0.05000193	          0.05000069	          0.06566388	          0.05945549	          0.05000017	
          1.73602274	         -2.89541144	          3.15291250	         -7.48086790	          2.18114148	          0.85173801	          0.00279426	         28.94688004	          4.60747425	         -1.54704525	        -16.20580416	         -3.65072042	          7.52528759	        -13.39859323	        -17.24593582	          3.90127936	         -3.82319744	         -4.78488487	         17.09514519	         -0.17751383	         25.85031538	         -1.17034618	         -1.94311093	          2.47461629	        -16.30502492	        -13.60409456	          5.26681982	          7.11461825	        -13.53566374	         17.40509999	         15.03661442	         48.72337899	         86.51662706	         86.51662706	          0.38917515	          0.41869702	          0.46905069	          0.19991603	          0.25635684	          0.26214617	          0.08242038	          0.13079764	          0.17798284	          0.07069937	          0.05000113	          0.07069852	          0.19635309	          0.20979922	          0.21170156	          0.18463163	          0.05000041	          0.05887475	          0.12430993	          0.27014444	          0.20219496	          0.17478221	          0.05000012	          0.05000014	          0.38229276	          0.09381662	          0.20103898	          0.05000009	          0.16993646	          0.19086150	          0.14591684	          0.05000006	          0.05000011	          0.05000002	          0.05000001	          0.05000093	          0.05000038	          0.64931670	          0.38620851	          0.19089059	          0.68322240	          0.68750426	          0.39563978	          0.07834470	          0.07069882	          0.06212893	          0.25491987	          0.05945638	          0.05000005	          0.19619310	          0.11708597	          0.06111767	          0.05000524	          0.05000033	          0.05000031	          0.05000034	          0.05947443	          0.16489719	          0.15751594	          0.05000095	          0.05000166	          0.05000507	          0.18922774	          0.07113423	          0.05000057	          0.05000117	          0.05000069	          0.05000034	          0.22794757	          0.46103507	          0.05000010	          0.05000045	          0.05000026	          0.16365646	          0.09997026	          0.11320374	          0.09996845	          0.20420905	          0.25909270	          0.17057002	          0.17469109	          0.21345114	          0.24322919	          0.19223453	          0.14407453	          0.20475588	          0.37285390	          0.21938367	          0.15033893	          0.09698446	          0.05000004	          0.05000008	
